# xmcd
#
# Track frame offsets: 
#        150
#        18994
#        30735
#        50259
#        66791
#        83687
#        104991
#        132287
#        146130
#        159984
#        176025
#        203312
#        220820
#        242623
#
# Disc length: 3467 seconds
#
# Revision: 0
# Processed by: cddbd v1.5.2PL0 Copyright (c) Steve Scherf et al.
# Submitted via: ExactAudioCopyFreeDBPlugin 1.0
#
DISCID=be0d890e
DTITLE=พงษ์สิทธิ์ คัมภีร์ - รวมฮิต เคียงข้าง สร้างฝัน2
DYEAR=1900
DGENRE=Thai Country
TTITLE0=คิดถึง
TTITLE1=ตลอดเวลา
TTITLE2=มาตามสัญญา
TTITLE3=ไถ่เธอคืนมา
TTITLE4=ถามยาย
TTITLE5=แม่
TTITLE6=เรียนและงาน
TTITLE7=โรงเรียนของหนู
TTITLE8=ไทรโศก
TTITLE9=ช่างมันฉันไม่แคร์
TTITLE10=อยู่ตรงนี้
TTITLE11=ทองดีทองเค
TTITLE12=ยอดชาย
TTITLE13=พเนจร
EXTD=
EXTT0=
EXTT1=
EXTT2=
EXTT3=
EXTT4=
EXTT5=
EXTT6=
EXTT7=
EXTT8=
EXTT9=
EXTT10=
EXTT11=
EXTT12=
EXTT13=
PLAYORDER=
